<svg width="20" height="20" viewBox="0 0 30 30" fill="none" xmlns="http://www.w3.org/2000/svg">
<path d="M6.5625 0C6.81114 0 7.0496 0.0987721 7.22541 0.274587C7.40123 0.450403 7.5 0.68886 7.5 0.9375V1.875H22.5V0.9375C22.5 0.68886 22.5988 0.450403 22.7746 0.274587C22.9504 0.0987721 23.1889 0 23.4375 0C23.6861 0 23.9246 0.0987721 24.1004 0.274587C24.2762 0.450403 24.375 0.68886 24.375 0.9375V1.875H26.25C27.2446 1.875 28.1984 2.27009 28.9016 2.97335C29.6049 3.67661 30 4.63044 30 5.625V26.25C30 27.2446 29.6049 28.1984 28.9016 28.9016C28.1984 29.6049 27.2446 30 26.25 30H3.75C2.75544 30 1.80161 29.6049 1.09835 28.9016C0.395088 28.1984 0 27.2446 0 26.25V5.625C0 4.63044 0.395088 3.67661 1.09835 2.97335C1.80161 2.27009 2.75544 1.875 3.75 1.875H5.625V0.9375C5.625 0.68886 5.72377 0.450403 5.89959 0.274587C6.0754 0.0987721 6.31386 0 6.5625 0ZM3.75 6.5625V8.4375C3.75 8.955 4.2075 9.375 4.77188 9.375H25.2281C25.7906 9.375 26.25 8.955 26.25 8.4375V6.5625C26.25 6.045 25.7925 5.625 25.2263 5.625H4.77188C4.20937 5.625 3.75 6.045 3.75 6.5625ZM15.9375 15.9375C15.9375 15.6889 15.8387 15.4504 15.6629 15.2746C15.4871 15.0988 15.2486 15 15 15C14.7514 15 14.5129 15.0988 14.3371 15.2746C14.1613 15.4504 14.0625 15.6889 14.0625 15.9375V18.75H11.25C11.0014 18.75 10.7629 18.8488 10.5871 19.0246C10.4113 19.2004 10.3125 19.4389 10.3125 19.6875C10.3125 19.9361 10.4113 20.1746 10.5871 20.3504C10.7629 20.5262 11.0014 20.625 11.25 20.625H14.0625V23.4375C14.0625 23.6861 14.1613 23.9246 14.3371 24.1004C14.5129 24.2762 14.7514 24.375 15 24.375C15.2486 24.375 15.4871 24.2762 15.6629 24.1004C15.8387 23.9246 15.9375 23.6861 15.9375 23.4375V20.625H18.75C18.9986 20.625 19.2371 20.5262 19.4129 20.3504C19.5887 20.1746 19.6875 19.9361 19.6875 19.6875C19.6875 19.4389 19.5887 19.2004 19.4129 19.0246C19.2371 18.8488 18.9986 18.75 18.75 18.75H15.9375V15.9375Z" fill="white"/>
</svg>
