<svg width="20" height="20" viewBox="0 0 30 30" fill="none" xmlns="http://www.w3.org/2000/svg">
<path d="M12.1875 0C11.4416 0 10.7262 0.296316 10.1988 0.823762C9.67132 1.35121 9.375 2.06658 9.375 2.8125V4.6875C9.375 5.43342 9.67132 6.14879 10.1988 6.67624C10.7262 7.20368 11.4416 7.5 12.1875 7.5H17.8125C18.5584 7.5 19.2738 7.20368 19.8012 6.67624C20.3287 6.14879 20.625 5.43342 20.625 4.6875V2.8125C20.625 2.06658 20.3287 1.35121 19.8012 0.823762C19.2738 0.296316 18.5584 0 17.8125 0L12.1875 0ZM17.8125 1.875C18.0611 1.875 18.2996 1.97377 18.4754 2.14959C18.6512 2.3254 18.75 2.56386 18.75 2.8125V4.6875C18.75 4.93614 18.6512 5.1746 18.4754 5.35041C18.2996 5.52623 18.0611 5.625 17.8125 5.625H12.1875C11.9389 5.625 11.7004 5.52623 11.5246 5.35041C11.3488 5.1746 11.25 4.93614 11.25 4.6875V2.8125C11.25 2.56386 11.3488 2.3254 11.5246 2.14959C11.7004 1.97377 11.9389 1.875 12.1875 1.875H17.8125Z" fill="white"/>
<path d="M7.5 2.8125H5.625C4.63044 2.8125 3.67661 3.20759 2.97335 3.91085C2.27009 4.61411 1.875 5.56794 1.875 6.5625V26.25C1.875 27.2446 2.27009 28.1984 2.97335 28.9016C3.67661 29.6049 4.63044 30 5.625 30H24.375C25.3696 30 26.3234 29.6049 27.0266 28.9016C27.7299 28.1984 28.125 27.2446 28.125 26.25V6.5625C28.125 5.56794 27.7299 4.61411 27.0266 3.91085C26.3234 3.20759 25.3696 2.8125 24.375 2.8125H22.5V4.6875C22.5 5.30307 22.3788 5.91262 22.1432 6.48133C21.9076 7.05004 21.5623 7.56679 21.1271 8.00206C20.6918 8.43734 20.175 8.78262 19.6063 9.01819C19.0376 9.25375 18.4281 9.375 17.8125 9.375H12.1875C10.9443 9.375 9.75201 8.88114 8.87294 8.00206C7.99386 7.12299 7.5 5.9307 7.5 4.6875V2.8125ZM20.3512 16.6012L14.7262 22.2262C14.6392 22.3136 14.5357 22.3828 14.4218 22.4301C14.3079 22.4773 14.1858 22.5017 14.0625 22.5017C13.9392 22.5017 13.8171 22.4773 13.7032 22.4301C13.5893 22.3828 13.4858 22.3136 13.3988 22.2262L10.5863 19.4137C10.4102 19.2377 10.3113 18.999 10.3113 18.75C10.3113 18.501 10.4102 18.2623 10.5863 18.0863C10.7623 17.9102 11.001 17.8113 11.25 17.8113C11.499 17.8113 11.7377 17.9102 11.9137 18.0863L14.0625 20.2369L19.0238 15.2738C19.1998 15.0977 19.4385 14.9988 19.6875 14.9988C19.9365 14.9988 20.1752 15.0977 20.3512 15.2738C20.5273 15.4498 20.6262 15.6885 20.6262 15.9375C20.6262 16.1865 20.5273 16.4252 20.3512 16.6012Z" fill="white"/>
</svg>
